<mxfile>
    <diagram id="XpCqL1EuHWW2sMweM-pp" name="Page-1">
        <mxGraphModel dx="1013" dy="631" grid="1" gridSize="10" guides="1" tooltips="1" connect="1" arrows="1" fold="1" page="1" pageScale="1" pageWidth="1100" pageHeight="850" background="#ffffff" math="0" shadow="0">
            <root>
                <mxCell id="0"/>
                <mxCell id="1" parent="0"/>
                <mxCell id="69" value="" style="rounded=1;whiteSpace=wrap;html=1;fillColor=none;dashed=1;" parent="1" vertex="1">
                    <mxGeometry x="570" y="325.18" width="400" height="347.82" as="geometry"/>
                </mxCell>
                <mxCell id="62" value="" style="rounded=1;whiteSpace=wrap;html=1;fillColor=none;dashed=1;strokeWidth=4;" parent="1" vertex="1">
                    <mxGeometry x="130" y="333" width="360" height="340" as="geometry"/>
                </mxCell>
                <mxCell id="66" value="Service Bus" style="rounded=1;whiteSpace=wrap;html=1;strokeWidth=4;" parent="1" vertex="1">
                    <mxGeometry x="181.99811965811966" y="376.0918181818181" width="98.46153846153847" height="73.09090909090908" as="geometry"/>
                </mxCell>
                <mxCell id="47" value="Locust" style="rounded=1;whiteSpace=wrap;html=1;" parent="1" vertex="1">
                    <mxGeometry x="181.99811965811966" y="176.99999999999997" width="98.46153846153847" height="73.09090909090908" as="geometry"/>
                </mxCell>
                <mxCell id="50" value="" style="endArrow=classic;html=1;exitX=0.5;exitY=1;exitDx=0;exitDy=0;entryX=0.5;entryY=0;entryDx=0;entryDy=0;rounded=1;" parent="1" source="47" target="66" edge="1">
                    <mxGeometry x="370.2273504273504" y="-138.92327272727272" as="geometry">
                        <mxPoint x="583.5606837606838" y="287.4403636363636" as="sourcePoint"/>
                        <mxPoint x="400.55965811965825" y="201.36363636363626" as="targetPoint"/>
                        <Array as="points"/>
                    </mxGeometry>
                </mxCell>
                <mxCell id="51" value="Send Create&lt;br&gt;Case Message" style="edgeLabel;resizable=0;html=1;align=center;verticalAlign=middle;" parent="50" connectable="0" vertex="1">
                    <mxGeometry relative="1" as="geometry">
                        <mxPoint x="-3.9968028886505635e-15" y="-13.09" as="offset"/>
                    </mxGeometry>
                </mxCell>
                <mxCell id="52" value="" style="endArrow=classic;html=1;exitX=1;exitY=0.5;exitDx=0;exitDy=0;entryX=0.5;entryY=0;entryDx=0;entryDy=0;" parent="1" source="47" target="7" edge="1">
                    <mxGeometry x="380.2273504273504" y="-126.74145454545453" as="geometry">
                        <mxPoint x="604.5581196581197" y="286.6363636363636" as="sourcePoint"/>
                        <mxPoint x="419.6888888888891" y="420.63636363636357" as="targetPoint"/>
                        <Array as="points">
                            <mxPoint x="897.46" y="213.54545454545453"/>
                        </Array>
                    </mxGeometry>
                </mxCell>
                <mxCell id="53" value="Send Close Case Message" style="edgeLabel;resizable=0;html=1;align=center;verticalAlign=middle;" parent="52" connectable="0" vertex="1">
                    <mxGeometry relative="1" as="geometry">
                        <mxPoint x="-39.559999999999995" as="offset"/>
                    </mxGeometry>
                </mxCell>
                <mxCell id="67" style="edgeStyle=orthogonalEdgeStyle;rounded=1;orthogonalLoop=1;jettySize=auto;html=1;entryX=0;entryY=0.5;entryDx=0;entryDy=0;dashed=1;" parent="1" source="66" target="4" edge="1">
                    <mxGeometry x="132" y="-38.09" as="geometry"/>
                </mxCell>
                <mxCell id="68" style="edgeStyle=orthogonalEdgeStyle;rounded=1;orthogonalLoop=1;jettySize=auto;html=1;entryX=1;entryY=0.5;entryDx=0;entryDy=0;dashed=1;" parent="1" source="4" target="66" edge="1">
                    <mxGeometry x="132" y="-38.09" as="geometry"/>
                </mxCell>
                <mxCell id="64" value="Customer Tenant" style="text;html=1;strokeColor=none;fillColor=none;align=center;verticalAlign=middle;whiteSpace=wrap;rounded=0;fontSize=14;fontStyle=2" parent="1" vertex="1">
                    <mxGeometry x="160.23" y="643" width="142" height="24.36" as="geometry"/>
                </mxCell>
                <mxCell id="81" value="" style="shape=cylinder;whiteSpace=wrap;html=1;boundedLbl=1;backgroundOutline=1;rounded=1;strokeWidth=4;" parent="1" vertex="1">
                    <mxGeometry x="201.22888888888892" y="525.7281818181816" width="60" height="80" as="geometry"/>
                </mxCell>
                <mxCell id="82" value="" style="edgeStyle=orthogonalEdgeStyle;rounded=0;orthogonalLoop=1;jettySize=auto;html=1;" parent="1" source="66" target="81" edge="1">
                    <mxGeometry x="130" y="60" as="geometry"/>
                </mxCell>
                <mxCell id="5" value="Create Case Flow" style="whiteSpace=wrap;html=1;rounded=1;" parent="1" vertex="1">
                    <mxGeometry x="594.1006837606838" y="386.0918181818181" width="98.46153846153847" height="73.09090909090908" as="geometry"/>
                </mxCell>
                <mxCell id="25" value="" style="endArrow=classic;html=1;exitX=1;exitY=0.5;exitDx=0;exitDy=0;" parent="1" target="7" edge="1">
                    <mxGeometry x="380.7673504273504" y="118.09181818181816" as="geometry">
                        <mxPoint x="692.5622222222222" y="422.4301818181817" as="sourcePoint"/>
                        <mxPoint x="758.2032478632478" y="422.4301818181817" as="targetPoint"/>
                        <Array as="points">
                            <mxPoint x="717.1776068376068" y="422.4301818181817"/>
                            <mxPoint x="770" y="422.6372727272727"/>
                        </Array>
                    </mxGeometry>
                </mxCell>
                <mxCell id="26" value="Open registry" style="edgeLabel;resizable=0;html=1;align=center;verticalAlign=middle;" parent="25" connectable="0" vertex="1">
                    <mxGeometry relative="1" as="geometry"/>
                </mxCell>
                <mxCell id="22" value="" style="endArrow=classic;html=1;exitX=1;exitY=0.5;exitDx=0;exitDy=0;" parent="1" source="4" target="5" edge="1">
                    <mxGeometry x="380.7673504273504" y="118.09181818181816" as="geometry">
                        <mxPoint x="471.02376068376066" y="581.000909090909" as="sourcePoint"/>
                        <mxPoint x="544.8699145299145" y="581.000909090909" as="targetPoint"/>
                        <Array as="points">
                            <mxPoint x="553.0750427350428" y="422.6372727272727"/>
                        </Array>
                    </mxGeometry>
                </mxCell>
                <mxCell id="23" value="Send Message Open" style="edgeLabel;resizable=0;html=1;align=center;verticalAlign=middle;" parent="22" connectable="0" vertex="1">
                    <mxGeometry relative="1" as="geometry"/>
                </mxCell>
                <mxCell id="7" value="Dataverse" style="whiteSpace=wrap;html=1;rounded=1;strokeWidth=4;" parent="1" vertex="1">
                    <mxGeometry x="838.0038974358974" y="386.0918181818181" width="118.15384615384619" height="73.09090909090908" as="geometry"/>
                </mxCell>
                <mxCell id="4" value="Connector API" style="rounded=1;whiteSpace=wrap;html=1;" parent="1" vertex="1">
                    <mxGeometry x="351.5381196581196" y="386.0918181818181" width="98.46153846153847" height="73.09090909090908" as="geometry"/>
                </mxCell>
                <mxCell id="72" value="Microsoft Platform" style="text;html=1;strokeColor=none;fillColor=none;align=center;verticalAlign=middle;whiteSpace=wrap;rounded=0;fontSize=14;fontStyle=2" parent="1" vertex="1">
                    <mxGeometry x="770" y="642.9990909090909" width="178.46" height="24.36363636363636" as="geometry"/>
                </mxCell>
                <mxCell id="9" value="Close Case&lt;br&gt;Flow" style="whiteSpace=wrap;html=1;rounded=1;" parent="1" vertex="1">
                    <mxGeometry x="600.0006837606837" y="507.90999999999985" width="98.46153846153847" height="73.09090909090908" as="geometry"/>
                </mxCell>
                <mxCell id="27" value="" style="endArrow=classic;html=1;exitX=0.5;exitY=1;exitDx=0;exitDy=0;entryX=1;entryY=0.5;entryDx=0;entryDy=0;" parent="1" source="7" target="9" edge="1">
                    <mxGeometry x="380.7673504273504" y="118.09181818181816" as="geometry">
                        <mxPoint x="749.9981196581197" y="544.2483636363635" as="sourcePoint"/>
                        <mxPoint x="815.6391452991453" y="544.2483636363635" as="targetPoint"/>
                        <Array as="points">
                            <mxPoint x="899" y="544.4554545454544"/>
                        </Array>
                    </mxGeometry>
                </mxCell>
                <mxCell id="28" value="Close registry" style="edgeLabel;resizable=0;html=1;align=center;verticalAlign=middle;" parent="27" connectable="0" vertex="1">
                    <mxGeometry relative="1" as="geometry">
                        <mxPoint x="-11.03" as="offset"/>
                    </mxGeometry>
                </mxCell>
                <mxCell id="29" value="" style="endArrow=classic;html=1;exitX=0;exitY=0.5;exitDx=0;exitDy=0;entryX=0.519;entryY=0.989;entryDx=0;entryDy=0;entryPerimeter=0;dashed=1;" parent="1" source="9" target="4" edge="1">
                    <mxGeometry x="380.7673504273504" y="118.09181818181816" as="geometry">
                        <mxPoint x="553.0750427350428" y="459.1827272727272" as="sourcePoint"/>
                        <mxPoint x="618.7160683760684" y="459.1827272727272" as="targetPoint"/>
                        <Array as="points">
                            <mxPoint x="402.53999999999996" y="544.4554545454544"/>
                        </Array>
                    </mxGeometry>
                </mxCell>
                <mxCell id="30" value="Send Message Close" style="edgeLabel;resizable=0;html=1;align=center;verticalAlign=middle;" parent="29" connectable="0" vertex="1">
                    <mxGeometry relative="1" as="geometry">
                        <mxPoint x="48.44" as="offset"/>
                    </mxGeometry>
                </mxCell>
                <mxCell id="85" value="&lt;span style=&quot;font-size: 11px&quot;&gt;Confirm Closed Registry&lt;/span&gt;" style="edgeLabel;html=1;align=center;verticalAlign=middle;resizable=0;points=[];fontSize=14;" parent="1" vertex="1" connectable="0">
                    <mxGeometry x="240" y="490" as="geometry"/>
                </mxCell>
                <mxCell id="86" value="&lt;h1 style=&quot;&quot;&gt;Test with Locust&lt;/h1&gt;&lt;h1 style=&quot;&quot;&gt;&lt;span style=&quot;font-size: 12px ; font-weight: normal&quot;&gt;This is the flow of the messages in the Test:&lt;/span&gt;&lt;/h1&gt;" style="text;html=1;strokeColor=none;fillColor=none;align=left;verticalAlign=middle;whiteSpace=wrap;rounded=0;" parent="1" vertex="1">
                    <mxGeometry x="120" y="70" width="399.23" height="90" as="geometry"/>
                </mxCell>
            </root>
        </mxGraphModel>
    </diagram>
</mxfile>